mtllib ./DelegateRing.mtl
g Ring
v -0.3499999 -0.1500001 -0.6062179
v 0.3500001 -0.1500001 -0.6062177
v 0.3500001 0.1499999 -0.6062177
v -0.3499999 0.1499999 -0.6062179
v -0.7 -0.1500001 5.125723E-08
v -0.7 0.1499999 5.125723E-08
v -0.3500001 -0.1500001 0.6062178
v -0.3500001 0.1499999 0.6062178
v 0.3500001 -0.1500001 0.6062179
v 0.3500001 0.1499999 0.6062179
v 0.7 -0.1500001 9.020262E-08
v 0.7 0.1499999 9.020262E-08

vn 1.70299E-07 0 -1
vn -0.8660254 0 -0.5000001
vn -0.8660254 0 0.4999999
vn -8.514946E-08 0 1
vn 0.8660254 0 0.4999999
vn 0.8660255 0 -0.4999999
vn 0 -1 0
vn 0 1 0

vt 0.3083988 0.2296558
vt 0.3083988 0.3000674
vt 0.3385721 0.3000659
vt 0.338572 0.2296558
vt 0.384462 0.168319
vt 0.3234836 0.2035247
vt 0.3995489 0.1944508
vt 0.4756143 0.2035247
vt 0.4146358 0.168319
vt 0.4605258 0.2296558
vt 0.490699 0.3000674
vt 0.490699 0.2296558
vt 0.4605258 0.3000659
vt 0.4146358 0.361402
vt 0.4756143 0.3261963
vt 0.3995489 0.335271
vt 0.3234836 0.3261963
vt 0.384462 0.361402

usemtl UModeler_Grid
usemap UModeler_Grid
f 3/3/1 2/2/1 1/1/1
f 4/4/1 3/3/1 1/1/1
f 4/4/2 1/6/2 5/5/2
f 6/7/2 4/4/2 5/5/2
f 6/7/3 5/9/3 7/8/3
f 8/10/3 6/7/3 7/8/3
f 8/10/4 7/12/4 9/11/4
f 10/13/4 8/10/4 9/11/4
f 10/13/5 9/15/5 11/14/5
f 12/16/5 10/13/5 11/14/5
f 12/16/6 11/18/6 2/17/6
f 3/3/6 12/16/6 2/17/6
f 5/7/7 1/10/7 2/13/7
f 7/4/7 5/7/7 2/13/7
f 9/3/7 7/4/7 2/13/7
f 11/16/7 9/3/7 2/13/7
f 8/10/8 10/13/8 12/16/8
f 6/7/8 8/10/8 12/16/8
f 4/4/8 6/7/8 12/16/8
f 3/3/8 4/4/8 12/16/8
