mtllib ./DelegateBase.mtl
g Base
v -1.108655 0.001 -0.4592201
v -0.45922 0.001 -1.108655
v -0.335839 1.001 -0.8107873
v -0.8107873 1.001 -0.3358391
v -1.108655 0.001 0.4592199
v -0.8107873 1.001 0.3358389
v 0.4592203 0.001 -1.108655
v 0.3358392 1.001 -0.8107873
v 1.108655 0.001 -0.4592201
v 0.8107873 1.001 -0.335839
v 1.108655 0.001 0.4592203
v 0.8107873 1.001 0.3358392
v 0.4592201 0.001 1.108655
v 0.335839 1.001 0.8107873
v -0.4592202 0.001 1.108655
v -0.3358392 1.001 0.8107873
v -0.2582803 1.001 -0.623544
v -0.623544 1.001 -0.2582804
v 0.2582805 1.001 -0.623544
v 0.623544 1.001 -0.2582803
v 0.623544 1.001 0.2582805
v 0.2582803 1.001 0.623544
v -0.2582804 1.001 0.623544
v -0.623544 1.001 0.2582802
v -0.2582803 1.501 -0.623544
v -0.623544 1.501 -0.2582804
v 0.2582805 1.501 -0.623544
v 0.623544 1.501 -0.2582803
v 0.623544 1.501 0.2582805
v 0.2582803 1.501 0.623544
v -0.2582804 1.501 0.623544
v -0.623544 1.501 0.2582802
v -0.1240739 1.501 -0.299541
v -0.299541 1.501 -0.124074
v 0.124074 1.501 -0.299541
v 0.299541 1.501 -0.1240739
v 0.299541 1.501 0.124074
v 0.1240739 1.501 0.299541
v -0.124074 1.501 0.299541
v -0.299541 1.501 0.1240739
v -0.1240739 2.001 -0.299541
v -0.299541 2.001 -0.124074
v -0.299541 2.001 0.1240739
v 0.124074 2.001 -0.299541
v 0.299541 2.001 -0.1240739
v 0.299541 2.001 0.124074
v 0.1240739 2.001 0.299541
v -0.124074 2.001 0.299541
v 1.317564 0.1401902 1.034721
v 1.034721 0.1401902 1.317564
v 0.8983861 0.2070001 1.181229
v 1.181229 0.2070001 0.8983862
v 0.7969486 0.2967947 1.079791
v 1.079791 0.2967947 0.7969486
v 0.7389646 0.4019999 1.021807
v 1.021807 0.4019999 0.7389647
v 0.4166369 0.002 0.9823224
v 0.9823224 0.002 0.4166369
v 0.9823224 0.402 0.4166369
v 0.4166369 0.402 0.9823224
v 1.441942 0.001 1.159099
v 1.159099 0.001 1.441942
v 1.159099 0.101 1.441942
v 1.441942 0.101 1.159099
v -1.317564 0.1401902 -1.034721
v -1.034721 0.1401902 -1.317564
v -0.8983862 0.2070001 -1.181229
v -1.181229 0.2070001 -0.8983862
v -0.7969486 0.2967947 -1.079791
v -1.079791 0.2967947 -0.7969486
v -0.7389647 0.4019999 -1.021807
v -1.021807 0.4019999 -0.7389647
v -0.4166369 0.002 -0.9823225
v -0.9823223 0.002 -0.4166369
v -0.9823223 0.402 -0.4166369
v -0.4166369 0.402 -0.9823225
v -1.441942 0.001 -1.159099
v -1.159099 0.001 -1.441942
v -1.159099 0.101 -1.441942
v -1.441942 0.101 -1.159099
v 1.034721 0.1401902 -1.317564
v 1.317564 0.1401902 -1.034721
v 1.181229 0.2070001 -0.8983861
v 0.8983862 0.2070001 -1.181229
v 1.079791 0.2967947 -0.7969485
v 0.7969486 0.2967947 -1.079791
v 1.021807 0.4019999 -0.7389646
v 0.7389647 0.4019999 -1.021807
v 0.9823224 0.002 -0.4166368
v 0.4166369 0.002 -0.9823224
v 0.4166369 0.402 -0.9823224
v 0.9823224 0.402 -0.4166368
v 1.159099 0.001 -1.441942
v 1.441942 0.001 -1.159099
v 1.441942 0.101 -1.159099
v 1.159099 0.101 -1.441942
v -1.034721 0.1401902 1.317564
v -1.317564 0.1401902 1.034721
v -1.181229 0.2070001 0.8983862
v -0.8983862 0.2070001 1.181229
v -1.079791 0.2967947 0.7969486
v -0.7969486 0.2967947 1.079791
v -1.021807 0.4019999 0.7389646
v -0.7389647 0.4019999 1.021807
v -0.9823225 0.002 0.4166368
v -0.4166369 0.002 0.9823223
v -0.4166369 0.402 0.9823223
v -0.9823225 0.402 0.4166368
v -1.159099 0.001 1.441942
v -1.441942 0.001 1.159099
v -1.441942 0.101 1.159099
v -1.159099 0.101 1.441942
v -0.09999996 2 -0.1732051
v 0.1 2 -0.1732051
v 0.1 12 -0.1732051
v -0.09999996 12 -0.1732051
v -0.2 2 -2.384976E-09
v -0.2 12 -2.384976E-09
v -0.1 2 0.1732051
v -0.1 12 0.1732051
v 0.1 2 0.1732051
v 0.1 12 0.1732051
v 0.2 2 8.742278E-09
v 0.2 12 8.742278E-09

vn -0.6776817 0.2854729 -0.6776819
vn -0.9583868 0.2854729 0
vn 0 0.2854729 -0.9583868
vn 0.677682 0.2854729 -0.6776817
vn 0.9583868 0.2854729 0
vn 0.6776817 0.285473 0.6776819
vn 0 0.2854729 0.9583868
vn -0.677682 0.2854729 0.6776816
vn 0 1 0
vn -0.7071067 0 -0.7071069
vn 0 0 -1
vn 0.7071069 0 -0.7071067
vn 1 0 0
vn 0.7071067 0 0.7071069
vn 0 0 1
vn -0.707107 0 0.7071066
vn -1 0 0
vn 0 -1 0
vn 0.2315158 0.9448814 0.2315158
vn 0.3751731 0.8476381 0.3751732
vn 0.5577053 0.6147596 0.5577055
vn -0.4999452 0.4674994 0.7290399
vn -0.4824314 0.3580708 0.799403
vn -0.4181306 0.2507529 0.8730921
vn -0.1215904 6.105025E-10 0.9925804
vn 0.7290397 0.4674998 -0.4999452
vn 0.7994031 0.3580706 -0.4824314
vn 0.873092 0.250753 -0.4181307
vn 0.9925804 1.459593E-09 -0.1215904
vn -0.0008318896 -0.9999993 -0.0008318899
vn 0.8502651 0 -0.5263547
vn -0.5263546 0 0.8502652
vn 0.1537743 0.9760671 0.1537743
vn -0.4873509 0.5653472 0.665486
vn 0.6654855 0.5653479 -0.4873508
vn -0.2315158 0.9448814 -0.2315158
vn -0.3751731 0.8476381 -0.3751732
vn -0.5577055 0.6147596 -0.5577055
vn 0.499945 0.4674996 -0.7290398
vn 0.4824314 0.3580708 -0.7994031
vn 0.4181306 0.250753 -0.8730921
vn 0.1215902 0 -0.9925804
vn -0.7290397 0.4674997 0.4999452
vn -0.7994031 0.3580706 0.4824314
vn -0.8730921 0.2507528 0.4181307
vn -0.9925804 0 0.1215906
vn 0.0008318898 -0.9999993 0.0008318897
vn -0.8502651 0 0.5263547
vn 0.5263545 0 -0.8502652
vn -0.1537744 0.9760671 -0.1537744
vn 0.4873507 0.5653477 -0.6654857
vn -0.6654854 0.565348 0.4873509
vn 0.2315157 0.9448815 -0.2315156
vn 0.3751732 0.8476381 -0.3751731
vn 0.5577055 0.6147596 -0.5577053
vn 0.7290395 0.4674999 0.4999452
vn 0.7994031 0.3580706 0.4824314
vn 0.873092 0.250753 0.4181307
vn 0.9925804 1.459593E-09 0.1215904
vn -0.4999451 0.4675 -0.7290395
vn -0.4824314 0.3580707 -0.7994031
vn -0.4181306 0.2507529 -0.8730921
vn -0.1215904 1.459593E-09 -0.9925804
vn -0.0008318896 -0.9999993 0.0008318896
vn -0.5263547 0 -0.8502651
vn 0.8502651 0 0.5263546
vn 0.1537744 0.9760671 -0.1537744
vn 0.6654861 0.565347 0.487351
vn -0.4873509 0.5653477 -0.6654857
vn -0.2315157 0.9448815 0.2315157
vn -0.375173 0.8476381 0.3751731
vn -0.5577055 0.6147594 0.5577056
vn -0.7290394 0.4675002 -0.499945
vn -0.7994031 0.3580709 -0.4824312
vn -0.8730925 0.2507524 -0.41813
vn -0.9925804 0 -0.1215904
vn 0.4999453 0.4675 0.7290394
vn 0.4824316 0.3580711 0.7994028
vn 0.4181302 0.2507523 0.8730924
vn 0.1215907 0 0.9925804
vn 0.0008318895 -0.9999993 -0.0008318898
vn 0.5263547 0 0.8502651
vn -0.8502653 0 -0.5263543
vn -0.1537744 0.9760671 0.1537744
vn -0.665487 0.5653459 -0.4873511
vn 0.4873512 0.5653467 0.6654862
vn -0.8660254 0 -0.5000001
vn -0.8660255 0 0.4999999
vn 0.8660254 0 0.5
vn 0.8660254 0 -0.4999999

vt 0.8524933 0.8935581
vt 0.9213073 0.7909812
vt 0.7955245 0.7265831
vt 0.7451996 0.8015999
vt 0.7616504 0.9772575
vt 0.6787645 0.8628128
vt 0.9642962 0.6751775
vt 0.826962 0.6418948
vt 0.979093 0.5525412
vt 0.8377826 0.5522088
vt 0.9648772 0.4298375
vt 0.8273847 0.4624723
vt 0.9224342 0.3138324
vt 0.796345 0.3776349
vt 0.8541057 0.2109274
vt 0.7463759 0.3023769
vt 0.7636594 0.1267997
vt 0.6802318 0.2408533
vt 0.7688082 0.7212147
vt 0.7300996 0.7789086
vt 0.7997261 0.6429127
vt 0.7755491 0.7080393
vt 0.8115302 0.5595499
vt 0.8032115 0.6285225
vt 0.8035702 0.4757348
vt 0.8115659 0.5447443
vt 0.7762827 0.3960803
vt 0.8001485 0.4613266
vt 0.7311657 0.3249954
vt 0.7695937 0.3828705
vt 0.670718 0.266393
vt 0.7215871 0.3137103
vt 0.7204632 0.790151
vt 0.6693727 0.8372259
vt 0.6450495 0.5845779
vt 0.5789323 0.5845779
vt 0.5789301 0.6528818
vt 0.6450483 0.6528818
vt 0.6450495 0.5162708
vt 0.5789323 0.5162708
vt 0.6450483 0.4479669
vt 0.5789301 0.4479669
vt 0.6450517 0.9261019
vt 0.5789335 0.9261019
vt 0.5789335 0.9944069
vt 0.6450517 0.9944069
vt 0.6450517 0.8577968
vt 0.5789335 0.8577968
vt 0.6450517 0.7894918
vt 0.5789335 0.7894918
vt 0.6450517 0.7211868
vt 0.5789335 0.7211868
vt 0.5360878 0.6023228
vt 0.5360878 0.6351326
vt 0.5360911 0.5340177
vt 0.5360911 0.5668311
vt 0.5360878 0.4657161
vt 0.5360878 0.498526
vt 0.5360912 0.9438478
vt 0.5360912 0.9766609
vt 0.5360912 0.8755428
vt 0.5360912 0.9083527
vt 0.5360912 0.8072378
vt 0.5360912 0.840051
vt 0.5360912 0.7389361
vt 0.5360912 0.771746
vt 0.5360912 0.6706278
vt 0.5360912 0.703441
vt 0.4699764 0.6023228
vt 0.4699764 0.6351326
vt 0.469973 0.6706278
vt 0.469973 0.703441
vt 0.469973 0.5340177
vt 0.469973 0.5668311
vt 0.4699764 0.4657127
vt 0.4699764 0.4985226
vt 0.4699731 0.9438478
vt 0.4699731 0.9766611
vt 0.4699798 0.8755428
vt 0.4699798 0.9083527
vt 0.469973 0.8072378
vt 0.469973 0.840051
vt 0.4699798 0.7389328
vt 0.4699798 0.7717426
vt 0.3907776 0.8755448
vt 0.3907776 0.9083512
vt 0.4139786 0.9315522
vt 0.446785 0.9315522
vt 0.446785 0.8523439
vt 0.4139786 0.8523439
vt 0.7063066 0.5652695
vt 0.6898204 0.5817558
vt 0.6898204 0.6050707
vt 0.7063066 0.6215569
vt 0.7296216 0.6215569
vt 0.7461078 0.6050707
vt 0.7461078 0.5817558
vt 0.7296216 0.5652695
vt 0.08079529 0.4556385
vt 0.2373504 0.4556386
vt 0.2373504 0.3757741
vt 0.08079529 0.375774
vt 0.2373504 0.3095357
vt 0.08079532 0.3095356
vt 0.2373505 0.2573277
vt 0.08079532 0.2573277
vt 0.3156281 0.0006367564
vt 0.00251773 0.0006367564
vt 0.00251773 0.1571919
vt 0.3156281 0.1571919
vt 0.4779672 0.08611703
vt 0.402508 0.05996954
vt 0.666333 0.00588581
vt 0.5341112 0.1212602
vt 0.5662043 0.1624345
vt 0.666333 0.1624345
vt 0.08080196 0.5653019
vt 0.2373506 0.5653019
vt 0.2373504 0.5261647
vt 0.08079529 0.5261647
vt 0.002527565 0.8979679
vt 0.3156249 0.8979679
vt 0.333667 0.005494475
vt 0.333667 0.04463163
vt 0.2633593 0.4179412
vt 0.2633593 0.4270709
vt 0.7198459 0.4270709
vt 0.7198459 0.4179413
vt 0.2633593 0.4088085
vt 0.7198459 0.4088086
vt 0.2633593 0.3996769
vt 0.7198459 0.3996769
vt 0.2633593 0.3905452
vt 0.7198459 0.3905452
vt 0.2633593 0.3814135
vt 0.7198459 0.3814135
vt 0.2633593 0.4362036
vt 0.7198459 0.4362036
vt 0.5386996 0.4615265
vt 0.5386996 0.4483686
vt 0.5273045 0.4417897
vt 0.5159094 0.4483686
vt 0.5159094 0.4615265
vt 0.5273045 0.4681054

usemtl UModeler_Grid
usemap UModeler_Grid
f 3/3/1 2/2/1 1/1/1
f 4/4/1 3/3/1 1/1/1
f 4/4/2 1/1/2 5/5/2
f 6/6/2 4/4/2 5/5/2
f 8/8/3 7/7/3 2/2/3
f 3/3/3 8/8/3 2/2/3
f 10/10/4 9/9/4 7/7/4
f 8/8/4 10/10/4 7/7/4
f 12/12/5 11/11/5 9/9/5
f 10/10/5 12/12/5 9/9/5
f 14/14/6 13/13/6 11/11/6
f 12/12/6 14/14/6 11/11/6
f 16/16/7 15/15/7 13/13/7
f 14/14/7 16/16/7 13/13/7
f 6/18/8 5/17/8 15/15/8
f 16/16/8 6/18/8 15/15/8
f 18/20/9 17/19/9 3/3/9
f 4/4/9 18/20/9 3/3/9
f 17/22/9 19/21/9 8/8/9
f 3/3/9 17/22/9 8/8/9
f 19/24/9 20/23/9 10/10/9
f 8/8/9 19/24/9 10/10/9
f 20/26/9 21/25/9 12/12/9
f 10/10/9 20/26/9 12/12/9
f 21/28/9 22/27/9 14/14/9
f 12/12/9 21/28/9 14/14/9
f 22/30/9 23/29/9 16/16/9
f 14/14/9 22/30/9 16/16/9
f 23/32/9 24/31/9 6/18/9
f 16/16/9 23/32/9 6/18/9
f 24/34/9 18/33/9 4/4/9
f 6/6/9 24/34/9 4/4/9
f 26/37/10 25/36/10 17/35/10
f 18/38/10 26/37/10 17/35/10
f 25/36/11 27/40/11 19/39/11
f 17/35/11 25/36/11 19/39/11
f 27/40/12 28/42/12 20/41/12
f 19/39/12 27/40/12 20/41/12
f 28/45/13 29/44/13 21/43/13
f 20/46/13 28/45/13 21/43/13
f 29/44/14 30/48/14 22/47/14
f 21/43/14 29/44/14 22/47/14
f 30/48/15 31/50/15 23/49/15
f 22/47/15 30/48/15 23/49/15
f 31/50/16 32/52/16 24/51/16
f 23/49/16 31/50/16 24/51/16
f 32/52/17 26/37/17 18/38/17
f 24/51/17 32/52/17 18/38/17
f 34/54/9 33/53/9 25/36/9
f 26/37/9 34/54/9 25/36/9
f 33/56/9 35/55/9 27/40/9
f 25/36/9 33/56/9 27/40/9
f 35/58/9 36/57/9 28/42/9
f 27/40/9 35/58/9 28/42/9
f 36/60/9 37/59/9 29/44/9
f 28/45/9 36/60/9 29/44/9
f 37/62/9 38/61/9 30/48/9
f 29/44/9 37/62/9 30/48/9
f 38/64/9 39/63/9 31/50/9
f 30/48/9 38/64/9 31/50/9
f 39/66/9 40/65/9 32/52/9
f 31/50/9 39/66/9 32/52/9
f 40/68/9 34/67/9 26/37/9
f 32/52/9 40/68/9 26/37/9
f 42/70/10 41/69/10 33/53/10
f 34/54/10 42/70/10 33/53/10
f 43/72/17 42/71/17 34/67/17
f 40/68/17 43/72/17 34/67/17
f 41/74/11 44/73/11 35/55/11
f 33/56/11 41/74/11 35/55/11
f 44/76/12 45/75/12 36/57/12
f 35/58/12 44/76/12 36/57/12
f 45/78/13 46/77/13 37/59/13
f 36/60/13 45/78/13 37/59/13
f 46/80/14 47/79/14 38/61/14
f 37/62/14 46/80/14 38/61/14
f 47/82/15 48/81/15 39/63/15
f 38/64/15 47/82/15 39/63/15
f 48/84/16 43/83/16 40/65/16
f 39/66/16 48/84/16 40/65/16
f 44/87/9 41/86/9 42/85/9
f 45/88/9 44/87/9 42/85/9
f 46/80/9 45/88/9 42/85/9
f 47/79/9 46/80/9 42/85/9
f 48/89/9 47/79/9 42/85/9
f 43/90/9 48/89/9 42/85/9
f 13/93/18 15/92/18 5/91/18
f 11/94/18 13/93/18 5/91/18
f 9/95/18 11/94/18 5/91/18
f 7/96/18 9/95/18 5/91/18
f 2/97/18 7/96/18 5/91/18
f 1/98/18 2/97/18 5/91/18
f 51/101/19 50/100/19 49/99/19
f 52/102/19 51/101/19 49/99/19
f 53/103/20 51/101/20 52/102/20
f 54/104/20 53/103/20 52/102/20
f 55/105/21 53/103/21 54/104/21
f 56/106/21 55/105/21 54/104/21
f 59/109/10 58/108/10 57/107/10
f 60/110/10 59/109/10 57/107/10
f 57/113/22 50/112/22 51/111/22
f 57/113/23 51/111/23 53/114/23
f 57/113/24 53/114/24 55/115/24
f 57/113/25 55/115/25 60/116/25
f 58/113/26 52/111/26 49/112/26
f 58/113/27 54/114/27 52/111/27
f 58/113/28 56/115/28 54/114/28
f 58/113/29 59/116/29 56/115/29
f 63/119/14 62/118/14 61/117/14
f 64/120/14 63/119/14 61/117/14
f 58/121/30 61/117/30 62/118/30
f 57/122/30 58/121/30 62/118/30
f 58/113/31 64/124/31 61/123/31
f 57/113/32 62/123/32 63/124/32
f 50/100/33 63/119/33 64/120/33
f 49/99/33 50/100/33 64/120/33
f 57/113/34 63/124/34 50/112/34
f 58/113/35 49/112/35 64/124/35
f 59/109/9 60/110/9 55/105/9
f 56/106/9 59/109/9 55/105/9
f 67/101/36 66/100/36 65/99/36
f 68/102/36 67/101/36 65/99/36
f 69/103/37 67/101/37 68/102/37
f 70/104/37 69/103/37 68/102/37
f 71/105/38 69/103/38 70/104/38
f 72/106/38 71/105/38 70/104/38
f 75/109/14 74/108/14 73/107/14
f 76/110/14 75/109/14 73/107/14
f 73/113/39 66/112/39 67/111/39
f 73/113/40 67/111/40 69/114/40
f 73/113/41 69/114/41 71/115/41
f 73/113/42 71/115/42 76/116/42
f 74/113/43 68/111/43 65/112/43
f 74/113/44 70/114/44 68/111/44
f 74/113/45 72/115/45 70/114/45
f 74/113/46 75/116/46 72/115/46
f 79/119/10 78/118/10 77/117/10
f 80/120/10 79/119/10 77/117/10
f 74/121/47 77/117/47 78/118/47
f 73/122/47 74/121/47 78/118/47
f 74/113/48 80/124/48 77/123/48
f 73/113/49 78/123/49 79/124/49
f 66/100/50 79/119/50 80/120/50
f 65/99/50 66/100/50 80/120/50
f 73/113/51 79/124/51 66/112/51
f 74/113/52 65/112/52 80/124/52
f 75/109/9 76/110/9 71/105/9
f 72/106/9 75/109/9 71/105/9
f 83/101/53 82/100/53 81/99/53
f 84/102/53 83/101/53 81/99/53
f 85/103/54 83/101/54 84/102/54
f 86/104/54 85/103/54 84/102/54
f 87/105/55 85/103/55 86/104/55
f 88/106/55 87/105/55 86/104/55
f 91/109/16 90/108/16 89/107/16
f 92/110/16 91/109/16 89/107/16
f 89/113/56 82/112/56 83/111/56
f 89/113/57 83/111/57 85/114/57
f 89/113/58 85/114/58 87/115/58
f 89/113/59 87/115/59 92/116/59
f 90/113/60 84/111/60 81/112/60
f 90/113/61 86/114/61 84/111/61
f 90/113/62 88/115/62 86/114/62
f 90/113/63 91/116/63 88/115/63
f 95/119/12 94/118/12 93/117/12
f 96/120/12 95/119/12 93/117/12
f 90/121/64 93/117/64 94/118/64
f 89/122/64 90/121/64 94/118/64
f 90/113/65 96/124/65 93/123/65
f 89/113/66 94/123/66 95/124/66
f 82/100/67 95/119/67 96/120/67
f 81/99/67 82/100/67 96/120/67
f 89/113/68 95/124/68 82/112/68
f 90/113/69 81/112/69 96/124/69
f 91/109/9 92/110/9 87/105/9
f 88/106/9 91/109/9 87/105/9
f 99/101/70 98/100/70 97/99/70
f 100/102/70 99/101/70 97/99/70
f 101/103/71 99/101/71 100/102/71
f 102/104/71 101/103/71 100/102/71
f 103/105/72 101/103/72 102/104/72
f 104/106/72 103/105/72 102/104/72
f 107/109/12 106/108/12 105/107/12
f 108/110/12 107/109/12 105/107/12
f 105/113/73 98/112/73 99/111/73
f 105/113/74 99/111/74 101/114/74
f 105/113/75 101/114/75 103/115/75
f 105/113/76 103/115/76 108/116/76
f 106/113/77 100/111/77 97/112/77
f 106/113/78 102/114/78 100/111/78
f 106/113/79 104/115/79 102/114/79
f 106/113/80 107/116/80 104/115/80
f 111/119/16 110/118/16 109/117/16
f 112/120/16 111/119/16 109/117/16
f 106/121/81 109/117/81 110/118/81
f 105/122/81 106/121/81 110/118/81
f 106/113/82 112/124/82 109/123/82
f 105/113/83 110/123/83 111/124/83
f 98/100/84 111/119/84 112/120/84
f 97/99/84 98/100/84 112/120/84
f 105/113/85 111/124/85 98/112/85
f 106/113/86 97/112/86 112/124/86
f 107/109/9 108/110/9 103/105/9
f 104/106/9 107/109/9 103/105/9
f 115/127/11 114/126/11 113/125/11
f 116/128/11 115/127/11 113/125/11
f 116/128/87 113/125/87 117/129/87
f 118/130/87 116/128/87 117/129/87
f 118/130/88 117/129/88 119/131/88
f 120/132/88 118/130/88 119/131/88
f 120/132/15 119/131/15 121/133/15
f 122/134/15 120/132/15 121/133/15
f 122/134/89 121/133/89 123/135/89
f 124/136/89 122/134/89 123/135/89
f 124/138/90 123/137/90 114/126/90
f 115/127/90 124/138/90 114/126/90
f 117/141/18 113/140/18 114/139/18
f 119/142/18 117/141/18 114/139/18
f 121/143/18 119/142/18 114/139/18
f 123/144/18 121/143/18 114/139/18
f 120/140/9 122/139/9 124/144/9
f 118/141/9 120/140/9 124/144/9
f 116/142/9 118/141/9 124/144/9
f 115/143/9 116/142/9 124/144/9
