mtllib ./DelegateFins.mtl
g Fins
v 0.2747224 0.3999996 -0.4758331
v 0.2747224 0.6000004 -0.4758331
v -0.2747224 0.6000004 -0.4758331
v -0.2747224 0.3999996 -0.4758331
v -0.5494447 0.3999996 -1.192093E-07
v -0.5494447 0.6000004 -1.192093E-07
v -0.2747225 0.6000004 0.4758328
v -0.2747225 0.3999996 0.4758328
v 0.2747224 0.3999996 0.4758328
v 0.2747224 0.6000004 0.4758328
v 0.5494447 0.6000004 -1.192093E-07
v 0.5494447 0.3999996 -1.192093E-07
v -1.3 1 -1.192093E-07
v -0.65 1 -1.125833
v -0.65 1.2 -1.125833
v -1.3 1.2 -1.192093E-07
v 0.65 1 -1.125833
v 0.65 1.2 -1.125833
v 1.3 1 -1.192093E-07
v 1.3 1.2 -1.192093E-07
v 0.6500001 1 1.125833
v -0.6500003 1 1.125833
v -0.6500003 1.2 1.125833
v 0.6500001 1.2 1.125833
v 0 1.001 -1.41561E-07
v -0.2165063 0.9340134 -0.1250001
v 1.092785E-08 0.9340134 -0.2500001
v -0.2165063 0.9340134 0.1249999
v 1.092785E-08 0.9340134 0.2499999
v 0.2165063 0.9340134 0.1249999
v 0.2165063 0.9340134 -0.1250002
v 1.892759E-08 0.7510004 -0.4330129
v -0.375 0.7510004 -0.2165065
v -0.375 0.7510004 0.2165062
v 0.375 0.7510004 -0.2165066
v 1.892759E-08 0.7510004 0.4330126
v 0.375 0.7510004 0.2165062
v 2.185569E-08 0.5010004 -0.5000001
v -0.4330127 0.5010004 -0.2500001
v 0.4330126 0.5010004 -0.2500002
v -0.4330127 0.5010004 0.2499999
v 2.185569E-08 0.5010004 0.4999999
v 0.4330127 0.5010004 0.2499999
v 1.892759E-08 0.2510004 -0.4330128
v -0.375 0.2510004 -0.2165065
v 0.3749999 0.2510004 -0.2165066
v -0.375 0.2510004 0.2165062
v 1.892759E-08 0.2510004 0.4330125
v 0.375 0.2510004 0.2165062
v 1.092785E-08 0.06798744 -0.2500002
v -0.2165064 0.06798744 -0.1250001
v 0.2165063 0.06798744 -0.1250002
v -0.2165064 0.06798744 0.1249999
v 1.092785E-08 0.06798744 0.2499999
v 0.2165064 0.06798744 0.1249999
v 3.785517E-08 0.001000404 -1.197053E-07

vn 0 0 -1
vn -0.8660254 0 0.5
vn 0.8660254 0 0.5000001
vn -0.8660254 0 -0.5
vn 0 0 1
vn -0.587408 -0.7348033 -0.3391402
vn 0.8660254 0 -0.5
vn 0.5874075 0.7348038 0.3391399
vn -0.5874075 0.7348038 0.3391399
vn 0 -0.7348033 0.6782803
vn 0 0.7348039 -0.6782797
vn 0 1 0
vn 0.587408 -0.7348033 -0.3391402
vn 0 -1 0
vn -0.1477878 0.9553193 -0.2559761
vn -0.2955756 0.9553193 0
vn -0.1477878 0.9553193 0.2559761
vn 0.1477878 0.9553193 0.2559761
vn 0.2955757 0.9553193 -3.523536E-08
vn 0.1477878 0.9553193 -0.2559761
vn -0.3779647 0.6546532 -0.6546541
vn -0.7559294 0.6546531 0
vn 0.3779647 0.6546532 -0.6546541
vn -0.3779647 0.6546532 0.6546541
vn 0.3779647 0.6546532 0.654654
vn 0.7559294 0.6546531 -6.596787E-08
vn -0.4870585 0.2260445 -0.84361
vn 0.4870584 0.2260445 -0.84361
vn -0.9741169 0.2260446 0
vn -0.4870585 0.2260446 0.84361
vn 0.4870585 0.2260446 0.84361
vn 0.974117 0.2260445 -9.33458E-08
vn -0.4870584 -0.2260446 -0.84361
vn 0.4870584 -0.2260446 -0.84361
vn -0.9741169 -0.2260446 0
vn -0.4870584 -0.2260446 0.84361
vn 0.4870584 -0.2260446 0.84361
vn 0.974117 -0.2260446 -1.244611E-07
vn -0.3779647 -0.654653 -0.6546541
vn 0.3779647 -0.6546531 -0.6546542
vn -0.7559294 -0.6546531 0
vn -0.3779647 -0.6546531 0.6546542
vn 0.3779647 -0.6546531 0.6546541
vn 0.7559295 -0.6546531 -9.895182E-08
vn -0.1477878 -0.9553193 -0.255976
vn 0.1477878 -0.9553193 -0.255976
vn -0.2955756 -0.9553193 0
vn -0.1477878 -0.9553193 0.255976
vn 0.1477878 -0.9553193 0.2559761
vn 0.2955757 -0.9553193 -3.523536E-08

vt 0.3402483 0.5730907
vt 0.3484977 0.5730896
vt 0.3484977 0.5504386
vt 0.3402483 0.5504392
vt 0.3206315 0.5391135
vt 0.3165048 0.5319717
vt 0.296891 0.5432972
vt 0.3010148 0.5504392
vt 0.3010148 0.5730907
vt 0.296891 0.5802343
vt 0.3165048 0.5915599
vt 0.3206315 0.5844165
vt 0.8958128 0.0004738569
vt 0.8375511 0.03411674
vt 0.8427218 0.04308353
vt 0.9009899 0.009443834
vt 0.9098039 0.01487225
vt 0.9070611 0.05880241
vt 0.9158719 0.06422766
vt 0.3718788 0.5265906
vt 0.3254632 0.4997955
vt 0.8827286 0.08335762
vt 0.8824326 0.07301626
vt 0.8430177 0.05342809
vt 0.8430177 0.1210448
vt 0.8427218 0.1313893
vt 0.8824326 0.1014566
vt 0.8827286 0.09111524
vt 0.8375511 0.1403561
vt 0.8958128 0.173999
vt 0.9009899 0.1650291
vt 0.9158719 0.1102452
vt 0.9070611 0.1156705
vt 0.9098039 0.1596006
vt 0.9878224 0.1208762
vt 0.9878224 0.05359675
vt 0.9774715 0.05359675
vt 0.9774715 0.1208762
vt 0.9683647 0.1257955
vt 0.9316894 0.1014534
vt 0.9225795 0.1063727
vt 0.2645481 0.5885626
vt 0.2645481 0.5349656
vt 0.9225795 0.06810011
vt 0.9316894 0.07301942
vt 0.9683647 0.04867743
vt 0.3254632 0.6237361
vt 0.3718788 0.5969409
vt 0.5959201 0.3609433
vt 0.5591033 0.3250074
vt 0.5222864 0.3609433
vt 0.5591033 0.3609433
vt 0.5959201 0.3250074
vt 0.5222864 0.3250074
vt 0.5647988 0.3609433
vt 0.537847 0.3609433
vt 0.5803595 0.3609433
vt 0.5534077 0.3609433
vt 0.586055 0.3609433
vt 0.5321515 0.3609433
vt 0.5272189 0.3609433
vt 0.5909876 0.3609433
vt 0.586055 0.3250074
vt 0.5321515 0.3250074
vt 0.5272189 0.3250074
vt 0.5909876 0.3250074
vt 0.5647988 0.3250074
vt 0.5534077 0.3250074
vt 0.537847 0.3250074
vt 0.5803595 0.3250074

usemtl UModeler_Grid
usemap UModeler_Grid
f 3/3/1 2/2/1 1/1/1
f 4/4/1 3/3/1 1/1/1
f 7/7/2 6/6/2 5/5/2
f 8/8/2 7/7/2 5/5/2
f 11/11/3 10/10/3 9/9/3
f 12/12/3 11/11/3 9/9/3
f 15/15/4 14/14/4 13/13/4
f 16/16/4 15/15/4 13/13/4
f 6/18/5 16/16/5 13/17/5
f 5/19/5 6/18/5 13/17/5
f 13/21/6 14/20/6 4/4/6
f 5/5/6 13/21/6 4/4/6
f 15/15/7 3/23/7 4/22/7
f 14/24/7 15/15/7 4/22/7
f 6/18/8 3/23/8 15/15/8
f 16/16/8 6/18/8 15/15/8
f 2/27/4 18/26/4 17/25/4
f 1/28/4 2/27/4 17/25/4
f 20/31/7 19/30/7 17/29/7
f 18/26/7 20/31/7 17/29/7
f 20/31/5 11/33/5 12/32/5
f 19/34/5 20/31/5 12/32/5
f 2/27/9 11/33/9 20/31/9
f 18/26/9 2/27/9 20/31/9
f 23/37/5 22/36/5 21/35/5
f 24/38/5 23/37/5 21/35/5
f 10/40/7 24/38/7 21/39/7
f 9/41/7 10/40/7 21/39/7
f 8/8/10 9/9/10 21/42/10
f 22/43/10 8/8/10 21/42/10
f 23/37/4 7/45/4 8/44/4
f 22/46/4 23/37/4 8/44/4
f 10/40/11 7/45/11 23/37/11
f 24/38/11 10/40/11 23/37/11
f 2/27/12 3/23/12 6/18/12
f 11/33/12 2/27/12 6/18/12
f 10/40/12 11/33/12 6/18/12
f 7/45/12 10/40/12 6/18/12
f 1/1/13 17/48/13 19/47/13
f 12/12/13 1/1/13 19/47/13
f 5/5/14 4/4/14 1/1/14
f 8/8/14 5/5/14 1/1/14
f 9/9/14 8/8/14 1/1/14
f 12/12/14 9/9/14 1/1/14
f 27/51/15 26/50/15 25/49/15
f 26/54/16 28/53/16 25/52/16
f 28/50/17 29/49/17 25/51/17
f 29/53/18 30/52/18 25/54/18
f 30/49/19 31/51/19 25/50/19
f 31/52/20 27/54/20 25/53/20
f 26/55/21 27/51/21 32/54/21
f 33/53/21 26/55/21 32/54/21
f 28/57/22 26/56/22 33/54/22
f 34/53/22 28/57/22 33/54/22
f 27/49/23 31/58/23 35/54/23
f 32/53/23 27/49/23 35/54/23
f 29/49/24 28/58/24 34/54/24
f 36/53/24 29/49/24 34/54/24
f 30/55/25 29/51/25 36/54/25
f 37/53/25 30/55/25 36/54/25
f 31/57/26 30/56/26 37/54/26
f 35/53/26 31/57/26 37/54/26
f 33/59/27 32/51/27 38/54/27
f 39/53/27 33/59/27 38/54/27
f 32/49/28 35/60/28 40/54/28
f 38/53/28 32/49/28 40/54/28
f 34/62/29 33/61/29 39/54/29
f 41/53/29 34/62/29 39/54/29
f 36/49/30 34/60/30 41/54/30
f 42/53/30 36/49/30 41/54/30
f 37/59/31 36/51/31 42/54/31
f 43/53/31 37/59/31 42/54/31
f 35/62/32 37/61/32 43/54/32
f 40/53/32 35/62/32 43/54/32
f 39/49/33 38/51/33 44/54/33
f 45/63/33 39/49/33 44/54/33
f 38/49/34 40/51/34 46/64/34
f 44/53/34 38/49/34 46/64/34
f 41/49/35 39/51/35 45/65/35
f 47/66/35 41/49/35 45/65/35
f 42/49/36 41/51/36 47/64/36
f 48/53/36 42/49/36 47/64/36
f 43/49/37 42/51/37 48/54/37
f 49/63/37 43/49/37 48/54/37
f 40/49/38 43/51/38 49/65/38
f 46/66/38 40/49/38 49/65/38
f 45/49/39 44/51/39 50/54/39
f 51/67/39 45/49/39 50/54/39
f 44/49/40 46/51/40 52/68/40
f 50/53/40 44/49/40 52/68/40
f 47/49/41 45/51/41 51/69/41
f 53/70/41 47/49/41 51/69/41
f 48/49/42 47/51/42 53/68/42
f 54/53/42 48/49/42 53/68/42
f 49/49/43 48/51/43 54/54/43
f 55/67/43 49/49/43 54/54/43
f 46/49/44 49/51/44 55/69/44
f 52/70/44 46/49/44 55/69/44
f 56/51/45 51/50/45 50/49/45
f 56/54/46 50/53/46 52/52/46
f 56/52/47 53/54/47 51/53/47
f 56/49/48 54/51/48 53/50/48
f 56/53/49 55/52/49 54/54/49
f 56/50/50 52/49/50 55/51/50
